<mxfile host="65bd71144e">
    <diagram id="V5zCxExv3vRcNPwlqdw-" name="第 1 页">
        <mxGraphModel dx="561" dy="326" grid="1" gridSize="10" guides="1" tooltips="1" connect="1" arrows="1" fold="1" page="1" pageScale="1" pageWidth="827" pageHeight="1169" background="none" math="0" shadow="0">
            <root>
                <mxCell id="0"/>
                <mxCell id="1" style="" parent="0"/>
                <mxCell id="11" value="" style="rounded=1;whiteSpace=wrap;html=1;fillColor=#60a917;strokeColor=#2D7600;fontColor=#ffffff;" parent="1" vertex="1">
                    <mxGeometry x="130" y="230" width="110" height="660" as="geometry"/>
                </mxCell>
                <mxCell id="132" value="" style="group" parent="1" vertex="1" connectable="0">
                    <mxGeometry x="260" y="230" width="470" height="660" as="geometry"/>
                </mxCell>
                <mxCell id="12" value="" style="rounded=1;whiteSpace=wrap;html=1;fillColor=#b1ddf0;arcSize=4;strokeColor=#10739e;" parent="132" vertex="1">
                    <mxGeometry width="470" height="660" as="geometry"/>
                </mxCell>
                <mxCell id="13" value="&lt;b&gt;Server&lt;/b&gt;" style="text;html=1;strokeColor=none;fillColor=none;align=center;verticalAlign=middle;whiteSpace=wrap;rounded=0;fontColor=#000000;" parent="132" vertex="1">
                    <mxGeometry width="60" height="30" as="geometry"/>
                </mxCell>
                <mxCell id="27" value="elements" style="" parent="0"/>
                <mxCell id="127" value="" style="group" parent="27" vertex="1" connectable="0">
                    <mxGeometry x="490" y="604.28" width="210" height="250" as="geometry"/>
                </mxCell>
                <mxCell id="128" value="" style="group" parent="127" vertex="1" connectable="0">
                    <mxGeometry width="210" height="250" as="geometry"/>
                </mxCell>
                <mxCell id="86" value="" style="rounded=1;whiteSpace=wrap;html=1;fontColor=#FF0000;strokeColor=default;fillColor=#FFB366;arcSize=8;" parent="128" vertex="1">
                    <mxGeometry width="210" height="250" as="geometry"/>
                </mxCell>
                <mxCell id="87" value="&lt;font color=&quot;#000000&quot;&gt;&lt;b&gt;*router&lt;/b&gt;&lt;/font&gt;" style="text;html=1;strokeColor=none;fillColor=none;align=center;verticalAlign=middle;whiteSpace=wrap;rounded=0;fontColor=#FF0000;" parent="128" vertex="1">
                    <mxGeometry x="4" width="60" height="31.5" as="geometry"/>
                </mxCell>
                <mxCell id="85" value="" style="group" parent="27" vertex="1" connectable="0">
                    <mxGeometry x="491" y="250" width="210" height="335" as="geometry"/>
                </mxCell>
                <mxCell id="14" value="" style="rounded=1;whiteSpace=wrap;html=1;fontColor=#000000;fillColor=#FFB366;strokeColor=#C73500;arcSize=9;" parent="85" vertex="1">
                    <mxGeometry width="210" height="335" as="geometry"/>
                </mxCell>
                <mxCell id="15" value="&lt;b&gt;Engine&lt;/b&gt;" style="text;html=1;strokeColor=none;fillColor=none;align=center;verticalAlign=middle;whiteSpace=wrap;rounded=0;fontColor=#000000;" parent="85" vertex="1">
                    <mxGeometry y="4.71830985915493" width="90" height="28.30985915492958" as="geometry"/>
                </mxCell>
                <mxCell id="32" value="&lt;font color=&quot;#000000&quot;&gt;&lt;b&gt;Request&lt;/b&gt;&lt;/font&gt;" style="rounded=1;whiteSpace=wrap;html=1;fillColor=#FFB366;strokeColor=#b46504;" parent="27" vertex="1">
                    <mxGeometry x="150" y="300" width="70" height="60" as="geometry"/>
                </mxCell>
                <mxCell id="33" value="&lt;b&gt;Customer&lt;/b&gt;" style="text;html=1;strokeColor=none;fillColor=none;align=center;verticalAlign=middle;whiteSpace=wrap;rounded=0;fontColor=#000000;" parent="27" vertex="1">
                    <mxGeometry x="140" y="230" width="60" height="30" as="geometry"/>
                </mxCell>
                <mxCell id="39" value="" style="rounded=0;whiteSpace=wrap;html=1;fontColor=#000000;fillColor=#FF8000;strokeColor=default;" parent="27" vertex="1">
                    <mxGeometry x="510" y="285" width="170" height="280" as="geometry"/>
                </mxCell>
                <mxCell id="59" value="" style="group" parent="27" vertex="1" connectable="0">
                    <mxGeometry x="534" y="315" width="120" height="240" as="geometry"/>
                </mxCell>
                <mxCell id="50" value="" style="group" parent="59" vertex="1" connectable="0">
                    <mxGeometry y="40" width="120" height="200" as="geometry"/>
                </mxCell>
                <mxCell id="42" value="&lt;font color=&quot;#000000&quot;&gt;Search groups for middlewares&lt;/font&gt;" style="rounded=1;whiteSpace=wrap;html=1;fillColor=#fad9d5;strokeColor=#ae4132;" parent="50" vertex="1">
                    <mxGeometry width="120" height="40" as="geometry"/>
                </mxCell>
                <mxCell id="43" value="&lt;font color=&quot;#000000&quot;&gt;Pack request into context&lt;/font&gt;" style="rounded=1;whiteSpace=wrap;html=1;fillColor=#fad9d5;strokeColor=#ae4132;" parent="50" vertex="1">
                    <mxGeometry y="80" width="120" height="40" as="geometry"/>
                </mxCell>
                <mxCell id="44" value="&lt;font color=&quot;#000000&quot;&gt;Handle context with router&lt;/font&gt;" style="rounded=1;whiteSpace=wrap;html=1;fillColor=#fad9d5;strokeColor=#ae4132;" parent="50" vertex="1">
                    <mxGeometry y="160" width="120" height="40" as="geometry"/>
                </mxCell>
                <mxCell id="140" value="" style="endArrow=classic;html=1;fontColor=#000000;strokeColor=#000000;strokeWidth=3;fillColor=#000000;gradientColor=#ffffff;entryX=0.5;entryY=0;entryDx=0;entryDy=0;exitX=0.5;exitY=1;exitDx=0;exitDy=0;" parent="50" source="42" target="43" edge="1">
                    <mxGeometry width="50" height="50" relative="1" as="geometry">
                        <mxPoint x="-4" y="75" as="sourcePoint"/>
                        <mxPoint x="46" y="25" as="targetPoint"/>
                    </mxGeometry>
                </mxCell>
                <mxCell id="40" value="&lt;b&gt;func ServeHTTP&lt;/b&gt;" style="text;html=1;strokeColor=none;fillColor=none;align=center;verticalAlign=middle;whiteSpace=wrap;rounded=0;fontColor=#000000;" parent="27" vertex="1">
                    <mxGeometry x="510" y="285" width="110" height="30" as="geometry"/>
                </mxCell>
                <mxCell id="63" value="" style="group" parent="27" vertex="1" connectable="0">
                    <mxGeometry x="321" y="355" width="140" height="40" as="geometry"/>
                </mxCell>
                <mxCell id="61" value="" style="rounded=1;whiteSpace=wrap;html=1;fontColor=#000000;strokeColor=default;fillColor=#FFB366;" parent="63" vertex="1">
                    <mxGeometry x="-20" width="160" height="40" as="geometry"/>
                </mxCell>
                <mxCell id="62" value="&lt;b&gt;*groups&lt;/b&gt;" style="text;html=1;strokeColor=none;fillColor=none;align=center;verticalAlign=middle;whiteSpace=wrap;rounded=0;fontColor=#000000;" parent="63" vertex="1">
                    <mxGeometry x="-16" width="50" height="20" as="geometry"/>
                </mxCell>
                <mxCell id="64" value="&lt;font color=&quot;#ff0000&quot;&gt;[g1(m1), g2(m2),..., gn(mn)]&lt;/font&gt;" style="text;html=1;strokeColor=none;fillColor=none;align=center;verticalAlign=middle;whiteSpace=wrap;rounded=0;fontColor=#000000;" parent="63" vertex="1">
                    <mxGeometry x="-20" y="19.2" width="160" height="20" as="geometry"/>
                </mxCell>
                <mxCell id="66" value="" style="group" parent="27" vertex="1" connectable="0">
                    <mxGeometry x="300" y="415" width="160" height="160" as="geometry"/>
                </mxCell>
                <mxCell id="67" value="" style="rounded=1;whiteSpace=wrap;html=1;fontColor=#000000;strokeColor=default;fillColor=#FFB366;arcSize=8;" parent="66" vertex="1">
                    <mxGeometry width="160" height="160" as="geometry"/>
                </mxCell>
                <mxCell id="68" value="&lt;b&gt;Context(&lt;font color=&quot;#ff0000&quot;&gt;original&lt;/font&gt;)&lt;/b&gt;" style="text;html=1;strokeColor=none;fillColor=none;align=center;verticalAlign=middle;whiteSpace=wrap;rounded=0;fontColor=#000000;" parent="66" vertex="1">
                    <mxGeometry width="111" height="30" as="geometry"/>
                </mxCell>
                <mxCell id="71" value="" style="group" parent="66" vertex="1" connectable="0">
                    <mxGeometry x="17" y="40" width="130" height="40" as="geometry"/>
                </mxCell>
                <mxCell id="72" value="" style="rounded=1;whiteSpace=wrap;html=1;fontColor=#000000;strokeColor=default;fillColor=#FFFF66;" parent="71" vertex="1">
                    <mxGeometry width="130" height="40" as="geometry"/>
                </mxCell>
                <mxCell id="80" value="" style="group" parent="71" vertex="1" connectable="0">
                    <mxGeometry width="112" height="39.19733333333333" as="geometry"/>
                </mxCell>
                <mxCell id="73" value="handlers" style="text;html=1;strokeColor=none;fillColor=none;align=center;verticalAlign=middle;whiteSpace=wrap;rounded=0;fontColor=#000000;" parent="80" vertex="1">
                    <mxGeometry width="60" height="20" as="geometry"/>
                </mxCell>
                <mxCell id="74" value="&lt;font color=&quot;#ff0000&quot;&gt;[m1,m2,...,mn]&lt;/font&gt;" style="text;html=1;strokeColor=none;fillColor=none;align=center;verticalAlign=middle;whiteSpace=wrap;rounded=0;fontColor=#000000;" parent="71" vertex="1">
                    <mxGeometry x="15" y="19.197333333333336" width="100" height="20" as="geometry"/>
                </mxCell>
                <mxCell id="76" value="" style="group" parent="66" vertex="1" connectable="0">
                    <mxGeometry x="17" y="100" width="130" height="30" as="geometry"/>
                </mxCell>
                <mxCell id="77" value="" style="rounded=1;whiteSpace=wrap;html=1;fontColor=#000000;strokeColor=default;fillColor=#FFFF66;" parent="76" vertex="1">
                    <mxGeometry width="130" height="30" as="geometry"/>
                </mxCell>
                <mxCell id="78" value="request information" style="text;html=1;strokeColor=none;fillColor=none;align=center;verticalAlign=middle;whiteSpace=wrap;rounded=0;fontColor=#000000;" parent="76" vertex="1">
                    <mxGeometry y="7.5" width="130" height="15" as="geometry"/>
                </mxCell>
                <mxCell id="88" value="&lt;font color=&quot;#000000&quot;&gt;Find corresponding node in the tries&lt;/font&gt;" style="rounded=1;whiteSpace=wrap;html=1;fillColor=#fad9d5;strokeColor=#ae4132;" parent="27" vertex="1">
                    <mxGeometry x="534" y="635" width="120" height="40" as="geometry"/>
                </mxCell>
                <mxCell id="90" value="&lt;font color=&quot;#000000&quot;&gt;Put handler into context&lt;/font&gt;" style="rounded=1;whiteSpace=wrap;html=1;fillColor=#fad9d5;strokeColor=#ae4132;" parent="27" vertex="1">
                    <mxGeometry x="534" y="715" width="120" height="40" as="geometry"/>
                </mxCell>
                <mxCell id="91" value="&lt;font color=&quot;#000000&quot;&gt;Execute handlers in the context&lt;/font&gt;" style="rounded=1;whiteSpace=wrap;html=1;fillColor=#fad9d5;strokeColor=#ae4132;" parent="27" vertex="1">
                    <mxGeometry x="534" y="795" width="120" height="40" as="geometry"/>
                </mxCell>
                <mxCell id="96" value="" style="group" parent="27" vertex="1" connectable="0">
                    <mxGeometry x="300" y="694.28" width="160" height="160" as="geometry"/>
                </mxCell>
                <mxCell id="97" value="" style="rounded=1;whiteSpace=wrap;html=1;fontColor=#000000;strokeColor=default;fillColor=#FFB366;arcSize=8;" parent="96" vertex="1">
                    <mxGeometry width="160" height="160" as="geometry"/>
                </mxCell>
                <mxCell id="98" value="&lt;b&gt;Context(&lt;font color=&quot;#00cc00&quot;&gt;routed&lt;/font&gt;)&lt;/b&gt;" style="text;html=1;strokeColor=none;fillColor=none;align=center;verticalAlign=middle;whiteSpace=wrap;rounded=0;fontColor=#000000;" parent="96" vertex="1">
                    <mxGeometry width="111" height="30" as="geometry"/>
                </mxCell>
                <mxCell id="99" value="" style="group" parent="96" vertex="1" connectable="0">
                    <mxGeometry x="17" y="40" width="130" height="40" as="geometry"/>
                </mxCell>
                <mxCell id="100" value="" style="rounded=1;whiteSpace=wrap;html=1;fontColor=#000000;strokeColor=default;fillColor=#FFFF66;" parent="99" vertex="1">
                    <mxGeometry width="130" height="40" as="geometry"/>
                </mxCell>
                <mxCell id="101" value="" style="group" parent="99" vertex="1" connectable="0">
                    <mxGeometry width="112" height="39.19733333333333" as="geometry"/>
                </mxCell>
                <mxCell id="102" value="handlers" style="text;html=1;strokeColor=none;fillColor=none;align=center;verticalAlign=middle;whiteSpace=wrap;rounded=0;fontColor=#000000;" parent="101" vertex="1">
                    <mxGeometry width="60" height="20" as="geometry"/>
                </mxCell>
                <mxCell id="103" value="&lt;font color=&quot;#ff0000&quot;&gt;[m1,m2,...,mn,&lt;/font&gt;&lt;font color=&quot;#00cc00&quot;&gt;handle&lt;/font&gt;&lt;font color=&quot;#ff0000&quot;&gt;]&lt;/font&gt;" style="text;html=1;strokeColor=none;fillColor=none;align=center;verticalAlign=middle;whiteSpace=wrap;rounded=0;fontColor=#000000;" parent="99" vertex="1">
                    <mxGeometry x="15" y="19.197333333333336" width="100" height="20" as="geometry"/>
                </mxCell>
                <mxCell id="104" value="" style="group" parent="96" vertex="1" connectable="0">
                    <mxGeometry x="17" y="100" width="130" height="30" as="geometry"/>
                </mxCell>
                <mxCell id="105" value="" style="rounded=1;whiteSpace=wrap;html=1;fontColor=#000000;strokeColor=default;fillColor=#FFFF66;" parent="104" vertex="1">
                    <mxGeometry width="130" height="30" as="geometry"/>
                </mxCell>
                <mxCell id="106" value="request information" style="text;html=1;strokeColor=none;fillColor=none;align=center;verticalAlign=middle;whiteSpace=wrap;rounded=0;fontColor=#000000;" parent="104" vertex="1">
                    <mxGeometry y="7.5" width="130" height="15" as="geometry"/>
                </mxCell>
                <mxCell id="119" value="" style="group" parent="27" vertex="1" connectable="0">
                    <mxGeometry x="301" y="635" width="160" height="40" as="geometry"/>
                </mxCell>
                <mxCell id="108" value="" style="rounded=1;whiteSpace=wrap;html=1;fontColor=#000000;strokeColor=default;fillColor=#FFB366;arcSize=24;" parent="119" vertex="1">
                    <mxGeometry width="160" height="40" as="geometry"/>
                </mxCell>
                <mxCell id="109" value="&lt;b&gt;roots&lt;/b&gt;" style="text;html=1;strokeColor=none;fillColor=none;align=center;verticalAlign=middle;whiteSpace=wrap;rounded=0;fontColor=#000000;" parent="119" vertex="1">
                    <mxGeometry x="7" y="1" width="38.89" height="17.14" as="geometry"/>
                </mxCell>
                <mxCell id="120" value="&lt;font color=&quot;#ff0000&quot;&gt;[trie1,trie2,...,trien]&lt;/font&gt;" style="text;html=1;strokeColor=none;fillColor=none;align=center;verticalAlign=middle;whiteSpace=wrap;rounded=0;fontColor=#000000;" parent="119" vertex="1">
                    <mxGeometry y="17.14" width="160" height="17.14" as="geometry"/>
                </mxCell>
                <mxCell id="136" value="" style="endArrow=classic;startArrow=classic;html=1;fontColor=#000000;strokeColor=#000000;strokeWidth=3;fillColor=#000000;gradientColor=#ffffff;entryX=0;entryY=0.5;entryDx=0;entryDy=0;exitX=1;exitY=0;exitDx=0;exitDy=0;" parent="27" source="64" target="42" edge="1">
                    <mxGeometry width="50" height="50" relative="1" as="geometry">
                        <mxPoint x="270" y="410" as="sourcePoint"/>
                        <mxPoint x="320" y="360" as="targetPoint"/>
                    </mxGeometry>
                </mxCell>
                <mxCell id="137" value="" style="endArrow=classic;html=1;fontColor=#000000;strokeColor=#000000;strokeWidth=3;fillColor=#000000;gradientColor=#ffffff;exitX=0;exitY=0.5;exitDx=0;exitDy=0;entryX=1;entryY=0.25;entryDx=0;entryDy=0;" parent="27" source="43" target="67" edge="1">
                    <mxGeometry width="50" height="50" relative="1" as="geometry">
                        <mxPoint x="270" y="410" as="sourcePoint"/>
                        <mxPoint x="320" y="360" as="targetPoint"/>
                    </mxGeometry>
                </mxCell>
                <mxCell id="141" value="" style="endArrow=classic;html=1;fontColor=#000000;strokeColor=#000000;strokeWidth=3;fillColor=#000000;gradientColor=#ffffff;exitX=1;exitY=0.75;exitDx=0;exitDy=0;entryX=0;entryY=0.5;entryDx=0;entryDy=0;" parent="27" source="67" target="44" edge="1">
                    <mxGeometry width="50" height="50" relative="1" as="geometry">
                        <mxPoint x="530" y="510" as="sourcePoint"/>
                        <mxPoint x="580" y="460" as="targetPoint"/>
                    </mxGeometry>
                </mxCell>
                <mxCell id="143" value="" style="endArrow=classic;html=1;fontColor=#000000;strokeColor=#000000;strokeWidth=3;fillColor=#000000;gradientColor=#ffffff;entryX=0.5;entryY=0;entryDx=0;entryDy=0;exitX=0.5;exitY=1;exitDx=0;exitDy=0;" parent="27" source="44" target="88" edge="1">
                    <mxGeometry width="50" height="50" relative="1" as="geometry">
                        <mxPoint x="530" y="630" as="sourcePoint"/>
                        <mxPoint x="580" y="580" as="targetPoint"/>
                    </mxGeometry>
                </mxCell>
                <mxCell id="144" value="" style="endArrow=classic;startArrow=classic;html=1;fontColor=#000000;strokeColor=#000000;strokeWidth=3;fillColor=#000000;gradientColor=#ffffff;exitX=1;exitY=0.5;exitDx=0;exitDy=0;entryX=0;entryY=0.5;entryDx=0;entryDy=0;" parent="27" source="108" target="88" edge="1">
                    <mxGeometry width="50" height="50" relative="1" as="geometry">
                        <mxPoint x="530" y="710" as="sourcePoint"/>
                        <mxPoint x="580" y="660" as="targetPoint"/>
                    </mxGeometry>
                </mxCell>
                <mxCell id="145" value="" style="endArrow=classic;html=1;fontColor=#000000;strokeColor=#000000;strokeWidth=3;fillColor=#000000;gradientColor=#ffffff;exitX=0.5;exitY=1;exitDx=0;exitDy=0;entryX=0.5;entryY=0;entryDx=0;entryDy=0;" parent="27" source="88" target="90" edge="1">
                    <mxGeometry width="50" height="50" relative="1" as="geometry">
                        <mxPoint x="510" y="710" as="sourcePoint"/>
                        <mxPoint x="560" y="660" as="targetPoint"/>
                    </mxGeometry>
                </mxCell>
                <mxCell id="146" value="" style="endArrow=classic;html=1;fontColor=#000000;strokeColor=#000000;strokeWidth=3;fillColor=#000000;gradientColor=#ffffff;exitX=0;exitY=0.5;exitDx=0;exitDy=0;" parent="27" source="90" edge="1">
                    <mxGeometry width="50" height="50" relative="1" as="geometry">
                        <mxPoint x="500" y="750" as="sourcePoint"/>
                        <mxPoint x="460" y="735" as="targetPoint"/>
                    </mxGeometry>
                </mxCell>
                <mxCell id="147" value="" style="endArrow=classic;html=1;fontColor=#000000;strokeColor=#000000;strokeWidth=3;fillColor=#000000;gradientColor=#ffffff;exitX=0;exitY=0.5;exitDx=0;exitDy=0;" parent="27" source="91" edge="1">
                    <mxGeometry width="50" height="50" relative="1" as="geometry">
                        <mxPoint x="440" y="760" as="sourcePoint"/>
                        <mxPoint x="460" y="815" as="targetPoint"/>
                    </mxGeometry>
                </mxCell>
                <mxCell id="148" value="" style="endArrow=classic;html=1;fontColor=#000000;strokeColor=#000000;strokeWidth=3;fillColor=#000000;gradientColor=#ffffff;entryX=0.5;entryY=0;entryDx=0;entryDy=0;exitX=0.5;exitY=1;exitDx=0;exitDy=0;" parent="27" source="90" target="91" edge="1">
                    <mxGeometry width="50" height="50" relative="1" as="geometry">
                        <mxPoint x="550" y="760" as="sourcePoint"/>
                        <mxPoint x="600" y="710" as="targetPoint"/>
                    </mxGeometry>
                </mxCell>
                <mxCell id="150" style="edgeStyle=orthogonalEdgeStyle;html=1;exitX=1;exitY=0.5;exitDx=0;exitDy=0;entryX=0.5;entryY=0;entryDx=0;entryDy=0;fontColor=#000000;startFill=1;endFill=1;strokeColor=#000000;strokeWidth=3;fillColor=#000000;gradientColor=#ffffff;rounded=0;" parent="27" source="32" target="42" edge="1">
                    <mxGeometry relative="1" as="geometry">
                        <Array as="points">
                            <mxPoint x="220" y="330"/>
                            <mxPoint x="594" y="330"/>
                        </Array>
                    </mxGeometry>
                </mxCell>
                <mxCell id="151" value="req" style="edgeLabel;html=1;align=center;verticalAlign=middle;resizable=0;points=[];fontColor=#000000;labelBackgroundColor=none;" parent="150" vertex="1" connectable="0">
                    <mxGeometry x="-0.3483" y="3" relative="1" as="geometry">
                        <mxPoint x="23" y="-10" as="offset"/>
                    </mxGeometry>
                </mxCell>
                <mxCell id="152" value="&lt;font color=&quot;#000000&quot;&gt;&lt;b&gt;Response&lt;/b&gt;&lt;/font&gt;" style="rounded=1;whiteSpace=wrap;html=1;fillColor=#FFB366;strokeColor=#b46504;" parent="27" vertex="1">
                    <mxGeometry x="150" y="744.28" width="70" height="60" as="geometry"/>
                </mxCell>
                <mxCell id="153" value="" style="endArrow=classic;html=1;fontColor=#000000;strokeColor=#000000;strokeWidth=3;fillColor=#000000;gradientColor=#ffffff;exitX=0;exitY=0.5;exitDx=0;exitDy=0;entryX=1;entryY=0.5;entryDx=0;entryDy=0;" parent="27" source="97" target="152" edge="1">
                    <mxGeometry width="50" height="50" relative="1" as="geometry">
                        <mxPoint x="360" y="620" as="sourcePoint"/>
                        <mxPoint x="410" y="570" as="targetPoint"/>
                    </mxGeometry>
                </mxCell>
                <mxCell id="154" value="resp" style="edgeLabel;html=1;align=center;verticalAlign=middle;resizable=0;points=[];fontColor=#000000;labelBackgroundColor=none;" parent="153" vertex="1" connectable="0">
                    <mxGeometry x="-0.2667" y="1" relative="1" as="geometry">
                        <mxPoint x="9" y="-12" as="offset"/>
                    </mxGeometry>
                </mxCell>
                <mxCell id="155" value="" style="curved=1;endArrow=classic;html=1;fontColor=#000000;strokeColor=#FF0000;strokeWidth=3;fillColor=#000000;gradientColor=#ffffff;exitX=0;exitY=1;exitDx=0;exitDy=0;entryX=0;entryY=0;entryDx=0;entryDy=0;" parent="27" source="67" target="98" edge="1">
                    <mxGeometry width="50" height="50" relative="1" as="geometry">
                        <mxPoint x="450" y="610" as="sourcePoint"/>
                        <mxPoint x="500" y="560" as="targetPoint"/>
                        <Array as="points">
                            <mxPoint x="270" y="600"/>
                            <mxPoint x="270" y="660"/>
                        </Array>
                    </mxGeometry>
                </mxCell>
                <mxCell id="156" value="transfer" style="edgeLabel;html=1;align=center;verticalAlign=middle;resizable=0;points=[];fontColor=#FF0000;labelBackgroundColor=none;" parent="155" vertex="1" connectable="0">
                    <mxGeometry x="-0.1613" y="1" relative="1" as="geometry">
                        <mxPoint x="29" y="-2" as="offset"/>
                    </mxGeometry>
                </mxCell>
            </root>
        </mxGraphModel>
    </diagram>
</mxfile>